<svg width="189" height="13" viewBox="0 0 189 13" fill="none" xmlns="http://www.w3.org/2000/svg">
<path d="M4.99219 9.68604C4.35547 9.68604 3.76758 9.57666 3.22852 9.35791C2.69336 9.13916 2.22656 8.83252 1.82812 8.43799C1.43359 8.04346 1.12695 7.57861 0.908203 7.04346C0.693359 6.50439 0.585938 5.91846 0.585938 5.28564C0.585938 4.64893 0.695312 4.06299 0.914062 3.52783C1.13281 2.98877 1.43945 2.52197 1.83398 2.12744C2.23242 1.73291 2.69922 1.42627 3.23438 1.20752C3.77344 0.98877 4.35938 0.879395 4.99219 0.879395C5.60547 0.879395 6.17773 0.990723 6.70898 1.21338C7.24414 1.43213 7.71289 1.74072 8.11523 2.13916C8.51758 2.53369 8.83203 2.99854 9.05859 3.53369C9.28516 4.06885 9.39844 4.65283 9.39844 5.28564C9.39844 5.91846 9.28906 6.50439 9.07031 7.04346C8.85156 7.57861 8.54297 8.04346 8.14453 8.43799C7.75 8.83252 7.2832 9.13916 6.74414 9.35791C6.20898 9.57666 5.625 9.68604 4.99219 9.68604ZM5.17969 7.96338C4.39062 7.96338 3.79688 7.72119 3.39844 7.23682C3 6.74854 2.80078 6.09814 2.80078 5.28564C2.80078 4.76611 2.89453 4.30713 3.08203 3.90869C3.27344 3.50635 3.54883 3.19189 3.9082 2.96533C4.27148 2.73486 4.71094 2.61963 5.22656 2.61963C5.48438 2.61963 5.74023 2.65088 5.99414 2.71338C6.24805 2.77588 6.48633 2.86377 6.70898 2.97705L6.38086 3.65674C6.18555 3.55518 5.99219 3.479 5.80078 3.42822C5.60938 3.37354 5.42188 3.34619 5.23828 3.34619C4.74219 3.34619 4.35742 3.52002 4.08398 3.86768C3.81055 4.21143 3.67383 4.68408 3.67383 5.28564C3.67383 5.91064 3.79688 6.39111 4.04297 6.72705C4.29297 7.06299 4.68555 7.23096 5.2207 7.23096C5.41602 7.23096 5.625 7.20557 5.84766 7.15479C6.07422 7.104 6.28906 7.0376 6.49219 6.95557V7.67041C6.30078 7.75635 6.10352 7.82666 5.90039 7.88135C5.69727 7.93604 5.45703 7.96338 5.17969 7.96338ZM4.99219 9.08838C5.51172 9.08838 5.99805 8.99463 6.45117 8.80713C6.9082 8.61963 7.30859 8.35596 7.65234 8.01611C7.99609 7.67236 8.26562 7.27002 8.46094 6.80908C8.65625 6.34424 8.75391 5.83643 8.75391 5.28564C8.75391 4.76221 8.66016 4.27197 8.47266 3.81494C8.28906 3.35791 8.0293 2.95361 7.69336 2.60205C7.35742 2.25049 6.95898 1.97705 6.49805 1.78174C6.04102 1.58252 5.53906 1.48291 4.99219 1.48291C4.44531 1.48291 3.94141 1.57666 3.48047 1.76416C3.02344 1.95166 2.625 2.21729 2.28516 2.56104C1.94922 2.90088 1.6875 3.30322 1.5 3.76807C1.31641 4.229 1.22461 4.73486 1.22461 5.28564C1.22461 5.80908 1.31641 6.30127 1.5 6.76221C1.68359 7.21924 1.94336 7.62354 2.2793 7.9751C2.61914 8.32275 3.01758 8.59619 3.47461 8.79541C3.93555 8.99072 4.44141 9.08838 4.99219 9.08838ZM15.2695 9.56885H14.2734V1.00244H19.043V1.88135H15.2695V5.02197H18.8145V5.89502H15.2695V9.56885ZM25.6289 3.14697V9.56885H24.832L24.6914 8.6665H24.6387C24.5059 8.88916 24.334 9.07666 24.123 9.229C23.9121 9.38135 23.6738 9.49463 23.4082 9.56885C23.1465 9.64697 22.8672 9.68604 22.5703 9.68604C22.0625 9.68604 21.6367 9.604 21.293 9.43994C20.9492 9.27588 20.6895 9.02197 20.5137 8.67822C20.3418 8.33447 20.2559 7.89307 20.2559 7.354V3.14697H21.2402V7.28369C21.2402 7.81885 21.3613 8.21924 21.6035 8.48486C21.8457 8.74658 22.2148 8.87744 22.7109 8.87744C23.1875 8.87744 23.5664 8.7876 23.8477 8.60791C24.1328 8.42822 24.3379 8.16455 24.4629 7.81689C24.5879 7.46533 24.6504 7.03564 24.6504 6.52783V3.14697H25.6289ZM31.8398 7.81104C31.8398 8.22119 31.7363 8.56689 31.5293 8.84814C31.3262 9.12549 31.0332 9.33447 30.6504 9.4751C30.2715 9.61572 29.8184 9.68604 29.291 9.68604C28.8418 9.68604 28.4531 9.65088 28.125 9.58057C27.7969 9.51025 27.5098 9.41064 27.2637 9.28174V8.38525C27.5254 8.51416 27.8379 8.63135 28.2012 8.73682C28.5645 8.84229 28.9355 8.89502 29.3145 8.89502C29.8691 8.89502 30.2715 8.80518 30.5215 8.62549C30.7715 8.4458 30.8965 8.20166 30.8965 7.89307C30.8965 7.71729 30.8457 7.56299 30.7441 7.43018C30.6465 7.29346 30.4805 7.1626 30.2461 7.0376C30.0117 6.90869 29.6875 6.76807 29.2734 6.61572C28.8633 6.45947 28.5078 6.30518 28.207 6.15283C27.9102 5.99658 27.6797 5.80713 27.5156 5.58447C27.3555 5.36182 27.2754 5.07275 27.2754 4.71729C27.2754 4.17432 27.4941 3.7583 27.9316 3.46924C28.373 3.17627 28.9512 3.02979 29.666 3.02979C30.0527 3.02979 30.4141 3.06885 30.75 3.14697C31.0898 3.22119 31.4062 3.32275 31.6992 3.45166L31.3711 4.23096C31.1055 4.11768 30.8223 4.02197 30.5215 3.94385C30.2207 3.86572 29.9141 3.82666 29.6016 3.82666C29.1523 3.82666 28.8066 3.90088 28.5645 4.04932C28.3262 4.19775 28.207 4.40088 28.207 4.65869C28.207 4.85791 28.2617 5.02197 28.3711 5.15088C28.4844 5.27979 28.6641 5.40088 28.9102 5.51416C29.1562 5.62744 29.4805 5.76025 29.8828 5.9126C30.2852 6.06104 30.6328 6.21533 30.9258 6.37549C31.2188 6.53174 31.4434 6.72314 31.5996 6.94971C31.7598 7.17236 31.8398 7.45947 31.8398 7.81104ZM35.877 3.02979C36.4238 3.02979 36.8926 3.15088 37.2832 3.39307C37.6738 3.63525 37.9727 3.9751 38.1797 4.4126C38.3867 4.84619 38.4902 5.354 38.4902 5.93604V6.53955H34.0547C34.0664 7.29346 34.2539 7.86768 34.6172 8.26221C34.9805 8.65674 35.4922 8.854 36.1523 8.854C36.5586 8.854 36.918 8.81689 37.2305 8.74268C37.543 8.66846 37.8672 8.55908 38.2031 8.41455V9.27002C37.8789 9.41455 37.5566 9.52002 37.2363 9.58643C36.9199 9.65283 36.5449 9.68604 36.1113 9.68604C35.4941 9.68604 34.9551 9.56104 34.4941 9.31104C34.0371 9.05713 33.6816 8.68604 33.4277 8.19775C33.1738 7.70947 33.0469 7.11182 33.0469 6.40479C33.0469 5.71338 33.1621 5.11572 33.3926 4.61182C33.627 4.104 33.9551 3.71338 34.377 3.43994C34.8027 3.1665 35.3027 3.02979 35.877 3.02979ZM35.8652 3.82666C35.3457 3.82666 34.9316 3.99658 34.623 4.33643C34.3145 4.67627 34.1309 5.15088 34.0723 5.76025H37.4707C37.4668 5.37744 37.4062 5.0415 37.2891 4.75244C37.1758 4.45947 37.002 4.23291 36.7676 4.07275C36.5332 3.90869 36.2324 3.82666 35.8652 3.82666ZM41.1211 9.56885H40.1426V0.45166H41.1211V9.56885ZM42.1641 3.14697H43.207L44.625 6.87354C44.707 7.09229 44.7832 7.30322 44.8535 7.50635C44.9238 7.70557 44.9863 7.89697 45.041 8.08057C45.0957 8.26416 45.1387 8.44189 45.1699 8.61377H45.2109C45.2656 8.41846 45.3438 8.1626 45.4453 7.84619C45.5469 7.52588 45.6562 7.19971 45.7734 6.86768L47.1152 3.14697H48.1641L45.3691 10.5122C45.2207 10.9067 45.0469 11.2505 44.8477 11.5435C44.6523 11.8364 44.4141 12.061 44.1328 12.2173C43.8516 12.3774 43.5117 12.4575 43.1133 12.4575C42.9297 12.4575 42.7676 12.4458 42.627 12.4224C42.4863 12.4028 42.3652 12.3794 42.2637 12.3521V11.5728C42.3496 11.5923 42.4531 11.6099 42.5742 11.6255C42.6992 11.6411 42.8281 11.6489 42.9609 11.6489C43.2031 11.6489 43.4121 11.6021 43.5879 11.5083C43.7676 11.4185 43.9219 11.2856 44.0508 11.1099C44.1797 10.9341 44.291 10.7251 44.3848 10.4829L44.7363 9.58057L42.1641 3.14697ZM57.4863 9.56885H51.873V8.75439L54.1641 6.42822C54.5898 5.99854 54.9473 5.61572 55.2363 5.27979C55.5293 4.94385 55.752 4.61377 55.9043 4.28955C56.0566 3.96143 56.1328 3.60205 56.1328 3.21143C56.1328 2.72705 55.9883 2.35791 55.6992 2.104C55.4141 1.84619 55.0371 1.71729 54.5684 1.71729C54.1582 1.71729 53.7949 1.7876 53.4785 1.92822C53.1621 2.06885 52.8379 2.26807 52.5059 2.52588L51.9844 1.86963C52.2109 1.67822 52.457 1.5083 52.7227 1.35986C52.9922 1.21143 53.2793 1.09424 53.584 1.0083C53.8926 0.922363 54.2207 0.879395 54.5684 0.879395C55.0957 0.879395 55.5508 0.971191 55.9336 1.15479C56.3164 1.33838 56.6113 1.6001 56.8184 1.93994C57.0293 2.27979 57.1348 2.68408 57.1348 3.15283C57.1348 3.60596 57.0449 4.02783 56.8652 4.41846C56.6855 4.80518 56.4336 5.18994 56.1094 5.57275C55.7852 5.95166 55.4062 6.354 54.9727 6.77979L53.1094 8.63721V8.67822H57.4863V9.56885ZM64.4004 5.27393C64.4004 5.96924 64.3477 6.59033 64.2422 7.13721C64.1367 7.68408 63.9707 8.14697 63.7441 8.52588C63.5176 8.90479 63.2246 9.19385 62.8652 9.39307C62.5059 9.58838 62.0742 9.68604 61.5703 9.68604C60.9336 9.68604 60.4062 9.51221 59.9883 9.16455C59.5742 8.81689 59.2637 8.31494 59.0566 7.65869C58.8535 6.99854 58.752 6.20361 58.752 5.27393C58.752 4.35986 58.8438 3.57471 59.0273 2.91846C59.2148 2.2583 59.5156 1.75244 59.9297 1.40088C60.3438 1.04541 60.8906 0.867676 61.5703 0.867676C62.2148 0.867676 62.7461 1.04346 63.1641 1.39502C63.582 1.74268 63.8926 2.24658 64.0957 2.90674C64.2988 3.56299 64.4004 4.35205 64.4004 5.27393ZM59.7305 5.27393C59.7305 6.0708 59.791 6.73486 59.9121 7.26611C60.0332 7.79736 60.2285 8.1958 60.498 8.46143C60.7715 8.72314 61.1289 8.854 61.5703 8.854C62.0117 8.854 62.3672 8.72314 62.6367 8.46143C62.9102 8.19971 63.1074 7.80322 63.2285 7.27197C63.3535 6.74072 63.416 6.07471 63.416 5.27393C63.416 4.48877 63.3555 3.83252 63.2344 3.30518C63.1133 2.77393 62.918 2.37549 62.6484 2.10986C62.3789 1.84033 62.0195 1.70557 61.5703 1.70557C61.1211 1.70557 60.7617 1.84033 60.4922 2.10986C60.2227 2.37549 60.0273 2.77393 59.9062 3.30518C59.7891 3.83252 59.7305 4.48877 59.7305 5.27393ZM71.2207 9.56885H65.6074V8.75439L67.8984 6.42822C68.3242 5.99854 68.6816 5.61572 68.9707 5.27979C69.2637 4.94385 69.4863 4.61377 69.6387 4.28955C69.791 3.96143 69.8672 3.60205 69.8672 3.21143C69.8672 2.72705 69.7227 2.35791 69.4336 2.104C69.1484 1.84619 68.7715 1.71729 68.3027 1.71729C67.8926 1.71729 67.5293 1.7876 67.2129 1.92822C66.8965 2.06885 66.5723 2.26807 66.2402 2.52588L65.7188 1.86963C65.9453 1.67822 66.1914 1.5083 66.457 1.35986C66.7266 1.21143 67.0137 1.09424 67.3184 1.0083C67.627 0.922363 67.9551 0.879395 68.3027 0.879395C68.8301 0.879395 69.2852 0.971191 69.668 1.15479C70.0508 1.33838 70.3457 1.6001 70.5527 1.93994C70.7637 2.27979 70.8691 2.68408 70.8691 3.15283C70.8691 3.60596 70.7793 4.02783 70.5996 4.41846C70.4199 4.80518 70.168 5.18994 69.8438 5.57275C69.5195 5.95166 69.1406 6.354 68.707 6.77979L66.8438 8.63721V8.67822H71.2207V9.56885ZM76.0957 9.56885H75.1465V3.49854C75.1465 3.26807 75.1465 3.0708 75.1465 2.90674C75.1504 2.73877 75.1543 2.58643 75.1582 2.44971C75.166 2.30908 75.1758 2.1665 75.1875 2.02197C75.0664 2.14697 74.9531 2.25439 74.8477 2.34424C74.7422 2.43018 74.6113 2.5376 74.4551 2.6665L73.4766 3.45166L72.9668 2.78955L75.2871 1.00244H76.0957V9.56885ZM79.6289 8.95947C79.6289 8.68604 79.6953 8.49268 79.8281 8.37939C79.9609 8.26221 80.123 8.20361 80.3145 8.20361C80.5137 8.20361 80.6816 8.26221 80.8184 8.37939C80.9551 8.49268 81.0234 8.68604 81.0234 8.95947C81.0234 9.229 80.9551 9.42627 80.8184 9.55127C80.6816 9.67236 80.5137 9.73291 80.3145 9.73291C80.123 9.73291 79.9609 9.67236 79.8281 9.55127C79.6953 9.42627 79.6289 9.229 79.6289 8.95947ZM91.5645 9.56885L90.5098 6.8501H87.0762L86.0273 9.56885H85.0195L88.3711 0.967285H89.2676L92.5957 9.56885H91.5645ZM90.2109 5.96533L89.209 3.26416C89.1855 3.19385 89.1465 3.07861 89.0918 2.91846C89.041 2.7583 88.9883 2.59229 88.9336 2.42041C88.8789 2.24854 88.834 2.10986 88.7988 2.00439C88.7598 2.16455 88.7168 2.32471 88.6699 2.48486C88.627 2.64111 88.584 2.7876 88.541 2.92432C88.498 3.05713 88.4609 3.17041 88.4297 3.26416L87.4102 5.96533H90.2109ZM94.6172 9.56885H93.6387V0.45166H94.6172V9.56885ZM97.6523 9.56885H96.6738V0.45166H97.6523V9.56885ZM105.744 3.02979C105.873 3.02979 106.008 3.0376 106.148 3.05322C106.289 3.06494 106.414 3.08252 106.523 3.10596L106.4 4.0083C106.295 3.98096 106.178 3.95947 106.049 3.94385C105.92 3.92822 105.799 3.92041 105.686 3.92041C105.428 3.92041 105.184 3.97314 104.953 4.07861C104.727 4.18018 104.527 4.32861 104.355 4.52393C104.184 4.71533 104.049 4.94775 103.951 5.22119C103.854 5.49072 103.805 5.7915 103.805 6.12354V9.56885H102.826V3.14697H103.635L103.74 4.33057H103.781C103.914 4.09229 104.074 3.87549 104.262 3.68018C104.449 3.48096 104.666 3.32275 104.912 3.20557C105.162 3.08838 105.439 3.02979 105.744 3.02979ZM108.709 3.14697V9.56885H107.736V3.14697H108.709ZM108.234 0.744629C108.395 0.744629 108.531 0.797363 108.645 0.902832C108.762 1.00439 108.82 1.16455 108.82 1.3833C108.82 1.59814 108.762 1.7583 108.645 1.86377C108.531 1.96924 108.395 2.02197 108.234 2.02197C108.066 2.02197 107.926 1.96924 107.812 1.86377C107.703 1.7583 107.648 1.59814 107.648 1.3833C107.648 1.16455 107.703 1.00439 107.812 0.902832C107.926 0.797363 108.066 0.744629 108.234 0.744629ZM112.564 12.4517C111.721 12.4517 111.07 12.2935 110.613 11.9771C110.156 11.6646 109.928 11.2251 109.928 10.6587C109.928 10.2563 110.055 9.9126 110.309 9.62744C110.566 9.34229 110.922 9.15283 111.375 9.05908C111.207 8.98096 111.062 8.86377 110.941 8.70752C110.824 8.55127 110.766 8.37158 110.766 8.16846C110.766 7.93408 110.83 7.729 110.959 7.55322C111.092 7.37354 111.293 7.20166 111.562 7.0376C111.227 6.90088 110.953 6.67041 110.742 6.34619C110.535 6.01807 110.432 5.63721 110.432 5.20361C110.432 4.74268 110.527 4.3501 110.719 4.02588C110.91 3.69775 111.188 3.44775 111.551 3.27588C111.914 3.104 112.354 3.01807 112.869 3.01807C112.982 3.01807 113.096 3.02393 113.209 3.03564C113.326 3.04346 113.438 3.05713 113.543 3.07666C113.648 3.09229 113.74 3.11182 113.818 3.13525H116.021V3.76221L114.838 3.90869C114.955 4.06104 115.053 4.24463 115.131 4.45947C115.209 4.67432 115.248 4.9126 115.248 5.17432C115.248 5.81494 115.031 6.32471 114.598 6.70361C114.164 7.07861 113.568 7.26611 112.811 7.26611C112.631 7.26611 112.447 7.25049 112.26 7.21924C112.068 7.32471 111.922 7.44189 111.82 7.5708C111.723 7.69971 111.674 7.84814 111.674 8.01611C111.674 8.14111 111.711 8.24072 111.785 8.31494C111.863 8.38916 111.975 8.44385 112.119 8.479C112.264 8.51025 112.438 8.52588 112.641 8.52588H113.771C114.471 8.52588 115.006 8.67236 115.377 8.96533C115.752 9.2583 115.939 9.68604 115.939 10.2485C115.939 10.9595 115.65 11.5044 115.072 11.8833C114.494 12.2622 113.658 12.4517 112.564 12.4517ZM112.594 11.6899C113.125 11.6899 113.564 11.6353 113.912 11.5259C114.264 11.4204 114.525 11.2661 114.697 11.063C114.873 10.8638 114.961 10.6255 114.961 10.3481C114.961 10.0903 114.902 9.89502 114.785 9.76221C114.668 9.6333 114.496 9.54736 114.27 9.50439C114.043 9.45752 113.766 9.43408 113.438 9.43408H112.324C112.035 9.43408 111.783 9.479 111.568 9.56885C111.354 9.65869 111.188 9.7915 111.07 9.96729C110.957 10.1431 110.9 10.3618 110.9 10.6235C110.9 10.9712 111.047 11.2349 111.34 11.4146C111.633 11.5981 112.051 11.6899 112.594 11.6899ZM112.846 6.55713C113.311 6.55713 113.66 6.43994 113.895 6.20557C114.129 5.97119 114.246 5.62939 114.246 5.18018C114.246 4.69971 114.127 4.34033 113.889 4.10205C113.65 3.85986 113.299 3.73877 112.834 3.73877C112.389 3.73877 112.045 3.86377 111.803 4.11377C111.564 4.35986 111.445 4.72119 111.445 5.19775C111.445 5.63525 111.566 5.97119 111.809 6.20557C112.051 6.43994 112.396 6.55713 112.846 6.55713ZM118.26 0.45166V3.17627C118.26 3.33252 118.256 3.49072 118.248 3.65088C118.24 3.80713 118.227 3.95166 118.207 4.08447H118.271C118.404 3.85791 118.572 3.66846 118.775 3.51611C118.982 3.35986 119.217 3.24268 119.479 3.16455C119.74 3.08252 120.018 3.0415 120.311 3.0415C120.826 3.0415 121.256 3.12354 121.6 3.2876C121.947 3.45166 122.207 3.70557 122.379 4.04932C122.555 4.39307 122.643 4.83838 122.643 5.38525V9.56885H121.682V5.44971C121.682 4.91455 121.559 4.51416 121.312 4.24854C121.07 3.98291 120.697 3.8501 120.193 3.8501C119.717 3.8501 119.336 3.94189 119.051 4.12549C118.77 4.30518 118.566 4.5708 118.441 4.92236C118.32 5.27393 118.26 5.70361 118.26 6.21143V9.56885H117.287V0.45166H118.26ZM126.721 8.88916C126.881 8.88916 127.045 8.87549 127.213 8.84814C127.381 8.8208 127.518 8.7876 127.623 8.74854V9.50439C127.51 9.55518 127.352 9.59814 127.148 9.6333C126.949 9.66846 126.754 9.68604 126.562 9.68604C126.223 9.68604 125.914 9.62744 125.637 9.51025C125.359 9.38916 125.137 9.18604 124.969 8.90088C124.805 8.61572 124.723 8.22119 124.723 7.71729V3.90869H123.809V3.43408L124.729 3.05322L125.115 1.65869H125.701V3.14697H127.582V3.90869H125.701V7.68799C125.701 8.09033 125.793 8.39111 125.977 8.59033C126.164 8.78955 126.412 8.88916 126.721 8.88916ZM133.078 7.81104C133.078 8.22119 132.975 8.56689 132.768 8.84814C132.564 9.12549 132.271 9.33447 131.889 9.4751C131.51 9.61572 131.057 9.68604 130.529 9.68604C130.08 9.68604 129.691 9.65088 129.363 9.58057C129.035 9.51025 128.748 9.41064 128.502 9.28174V8.38525C128.764 8.51416 129.076 8.63135 129.439 8.73682C129.803 8.84229 130.174 8.89502 130.553 8.89502C131.107 8.89502 131.51 8.80518 131.76 8.62549C132.01 8.4458 132.135 8.20166 132.135 7.89307C132.135 7.71729 132.084 7.56299 131.982 7.43018C131.885 7.29346 131.719 7.1626 131.484 7.0376C131.25 6.90869 130.926 6.76807 130.512 6.61572C130.102 6.45947 129.746 6.30518 129.445 6.15283C129.148 5.99658 128.918 5.80713 128.754 5.58447C128.594 5.36182 128.514 5.07275 128.514 4.71729C128.514 4.17432 128.732 3.7583 129.17 3.46924C129.611 3.17627 130.189 3.02979 130.904 3.02979C131.291 3.02979 131.652 3.06885 131.988 3.14697C132.328 3.22119 132.645 3.32275 132.938 3.45166L132.609 4.23096C132.344 4.11768 132.061 4.02197 131.76 3.94385C131.459 3.86572 131.152 3.82666 130.84 3.82666C130.391 3.82666 130.045 3.90088 129.803 4.04932C129.564 4.19775 129.445 4.40088 129.445 4.65869C129.445 4.85791 129.5 5.02197 129.609 5.15088C129.723 5.27979 129.902 5.40088 130.148 5.51416C130.395 5.62744 130.719 5.76025 131.121 5.9126C131.523 6.06104 131.871 6.21533 132.164 6.37549C132.457 6.53174 132.682 6.72314 132.838 6.94971C132.998 7.17236 133.078 7.45947 133.078 7.81104ZM140.678 3.02979C140.807 3.02979 140.941 3.0376 141.082 3.05322C141.223 3.06494 141.348 3.08252 141.457 3.10596L141.334 4.0083C141.229 3.98096 141.111 3.95947 140.982 3.94385C140.854 3.92822 140.732 3.92041 140.619 3.92041C140.361 3.92041 140.117 3.97314 139.887 4.07861C139.66 4.18018 139.461 4.32861 139.289 4.52393C139.117 4.71533 138.982 4.94775 138.885 5.22119C138.787 5.49072 138.738 5.7915 138.738 6.12354V9.56885H137.76V3.14697H138.568L138.674 4.33057H138.715C138.848 4.09229 139.008 3.87549 139.195 3.68018C139.383 3.48096 139.6 3.32275 139.846 3.20557C140.096 3.08838 140.373 3.02979 140.678 3.02979ZM145.143 3.02979C145.689 3.02979 146.158 3.15088 146.549 3.39307C146.939 3.63525 147.238 3.9751 147.445 4.4126C147.652 4.84619 147.756 5.354 147.756 5.93604V6.53955H143.32C143.332 7.29346 143.52 7.86768 143.883 8.26221C144.246 8.65674 144.758 8.854 145.418 8.854C145.824 8.854 146.184 8.81689 146.496 8.74268C146.809 8.66846 147.133 8.55908 147.469 8.41455V9.27002C147.145 9.41455 146.822 9.52002 146.502 9.58643C146.186 9.65283 145.811 9.68604 145.377 9.68604C144.76 9.68604 144.221 9.56104 143.76 9.31104C143.303 9.05713 142.947 8.68604 142.693 8.19775C142.439 7.70947 142.312 7.11182 142.312 6.40479C142.312 5.71338 142.428 5.11572 142.658 4.61182C142.893 4.104 143.221 3.71338 143.643 3.43994C144.068 3.1665 144.568 3.02979 145.143 3.02979ZM145.131 3.82666C144.611 3.82666 144.197 3.99658 143.889 4.33643C143.58 4.67627 143.396 5.15088 143.338 5.76025H146.736C146.732 5.37744 146.672 5.0415 146.555 4.75244C146.441 4.45947 146.268 4.23291 146.033 4.07275C145.799 3.90869 145.498 3.82666 145.131 3.82666ZM153.562 7.81104C153.562 8.22119 153.459 8.56689 153.252 8.84814C153.049 9.12549 152.756 9.33447 152.373 9.4751C151.994 9.61572 151.541 9.68604 151.014 9.68604C150.564 9.68604 150.176 9.65088 149.848 9.58057C149.52 9.51025 149.232 9.41064 148.986 9.28174V8.38525C149.248 8.51416 149.561 8.63135 149.924 8.73682C150.287 8.84229 150.658 8.89502 151.037 8.89502C151.592 8.89502 151.994 8.80518 152.244 8.62549C152.494 8.4458 152.619 8.20166 152.619 7.89307C152.619 7.71729 152.568 7.56299 152.467 7.43018C152.369 7.29346 152.203 7.1626 151.969 7.0376C151.734 6.90869 151.41 6.76807 150.996 6.61572C150.586 6.45947 150.23 6.30518 149.93 6.15283C149.633 5.99658 149.402 5.80713 149.238 5.58447C149.078 5.36182 148.998 5.07275 148.998 4.71729C148.998 4.17432 149.217 3.7583 149.654 3.46924C150.096 3.17627 150.674 3.02979 151.389 3.02979C151.775 3.02979 152.137 3.06885 152.473 3.14697C152.812 3.22119 153.129 3.32275 153.422 3.45166L153.094 4.23096C152.828 4.11768 152.545 4.02197 152.244 3.94385C151.943 3.86572 151.637 3.82666 151.324 3.82666C150.875 3.82666 150.529 3.90088 150.287 4.04932C150.049 4.19775 149.93 4.40088 149.93 4.65869C149.93 4.85791 149.984 5.02197 150.094 5.15088C150.207 5.27979 150.387 5.40088 150.633 5.51416C150.879 5.62744 151.203 5.76025 151.605 5.9126C152.008 6.06104 152.355 6.21533 152.648 6.37549C152.941 6.53174 153.166 6.72314 153.322 6.94971C153.482 7.17236 153.562 7.45947 153.562 7.81104ZM157.6 3.02979C158.146 3.02979 158.615 3.15088 159.006 3.39307C159.396 3.63525 159.695 3.9751 159.902 4.4126C160.109 4.84619 160.213 5.354 160.213 5.93604V6.53955H155.777C155.789 7.29346 155.977 7.86768 156.34 8.26221C156.703 8.65674 157.215 8.854 157.875 8.854C158.281 8.854 158.641 8.81689 158.953 8.74268C159.266 8.66846 159.59 8.55908 159.926 8.41455V9.27002C159.602 9.41455 159.279 9.52002 158.959 9.58643C158.643 9.65283 158.268 9.68604 157.834 9.68604C157.217 9.68604 156.678 9.56104 156.217 9.31104C155.76 9.05713 155.404 8.68604 155.15 8.19775C154.896 7.70947 154.77 7.11182 154.77 6.40479C154.77 5.71338 154.885 5.11572 155.115 4.61182C155.35 4.104 155.678 3.71338 156.1 3.43994C156.525 3.1665 157.025 3.02979 157.6 3.02979ZM157.588 3.82666C157.068 3.82666 156.654 3.99658 156.346 4.33643C156.037 4.67627 155.854 5.15088 155.795 5.76025H159.193C159.189 5.37744 159.129 5.0415 159.012 4.75244C158.898 4.45947 158.725 4.23291 158.49 4.07275C158.256 3.90869 157.955 3.82666 157.588 3.82666ZM164.783 3.02979C164.912 3.02979 165.047 3.0376 165.188 3.05322C165.328 3.06494 165.453 3.08252 165.562 3.10596L165.439 4.0083C165.334 3.98096 165.217 3.95947 165.088 3.94385C164.959 3.92822 164.838 3.92041 164.725 3.92041C164.467 3.92041 164.223 3.97314 163.992 4.07861C163.766 4.18018 163.566 4.32861 163.395 4.52393C163.223 4.71533 163.088 4.94775 162.99 5.22119C162.893 5.49072 162.844 5.7915 162.844 6.12354V9.56885H161.865V3.14697H162.674L162.779 4.33057H162.82C162.953 4.09229 163.113 3.87549 163.301 3.68018C163.488 3.48096 163.705 3.32275 163.951 3.20557C164.201 3.08838 164.479 3.02979 164.783 3.02979ZM168.188 9.56885L165.75 3.14697H166.793L168.205 7.03174C168.303 7.29736 168.402 7.59033 168.504 7.91064C168.605 8.23096 168.676 8.48877 168.715 8.68408H168.756C168.803 8.48877 168.881 8.23096 168.99 7.91064C169.1 7.58643 169.199 7.29346 169.289 7.03174L170.701 3.14697H171.744L169.301 9.56885H168.188ZM175.248 3.02979C175.795 3.02979 176.264 3.15088 176.654 3.39307C177.045 3.63525 177.344 3.9751 177.551 4.4126C177.758 4.84619 177.861 5.354 177.861 5.93604V6.53955H173.426C173.438 7.29346 173.625 7.86768 173.988 8.26221C174.352 8.65674 174.863 8.854 175.523 8.854C175.93 8.854 176.289 8.81689 176.602 8.74268C176.914 8.66846 177.238 8.55908 177.574 8.41455V9.27002C177.25 9.41455 176.928 9.52002 176.607 9.58643C176.291 9.65283 175.916 9.68604 175.482 9.68604C174.865 9.68604 174.326 9.56104 173.865 9.31104C173.408 9.05713 173.053 8.68604 172.799 8.19775C172.545 7.70947 172.418 7.11182 172.418 6.40479C172.418 5.71338 172.533 5.11572 172.764 4.61182C172.998 4.104 173.326 3.71338 173.748 3.43994C174.174 3.1665 174.674 3.02979 175.248 3.02979ZM175.236 3.82666C174.717 3.82666 174.303 3.99658 173.994 4.33643C173.686 4.67627 173.502 5.15088 173.443 5.76025H176.842C176.838 5.37744 176.777 5.0415 176.66 4.75244C176.547 4.45947 176.373 4.23291 176.139 4.07275C175.904 3.90869 175.604 3.82666 175.236 3.82666ZM181.799 9.68604C180.986 9.68604 180.342 9.40869 179.865 8.854C179.393 8.29932 179.156 7.4751 179.156 6.38135C179.156 5.27588 179.398 4.44189 179.883 3.87939C180.367 3.31299 181.012 3.02979 181.816 3.02979C182.156 3.02979 182.453 3.07471 182.707 3.16455C182.961 3.25439 183.18 3.37549 183.363 3.52783C183.547 3.67627 183.701 3.84619 183.826 4.0376H183.896C183.881 3.9165 183.865 3.75049 183.85 3.53955C183.834 3.32861 183.826 3.15674 183.826 3.02393V0.45166H184.799V9.56885H184.014L183.867 8.65479H183.826C183.705 8.84619 183.551 9.02002 183.363 9.17627C183.18 9.33252 182.959 9.45752 182.701 9.55127C182.447 9.64111 182.146 9.68604 181.799 9.68604ZM181.951 8.87744C182.639 8.87744 183.125 8.68213 183.41 8.2915C183.695 7.90088 183.838 7.3208 183.838 6.55127V6.37549C183.838 5.55908 183.701 4.93213 183.428 4.49463C183.158 4.05713 182.666 3.83838 181.951 3.83838C181.354 3.83838 180.906 4.06885 180.609 4.52979C180.312 4.98682 180.164 5.61182 180.164 6.40479C180.164 7.19385 180.311 7.80322 180.604 8.23291C180.9 8.6626 181.35 8.87744 181.951 8.87744ZM186.715 8.95947C186.715 8.68604 186.781 8.49268 186.914 8.37939C187.047 8.26221 187.209 8.20361 187.4 8.20361C187.6 8.20361 187.768 8.26221 187.904 8.37939C188.041 8.49268 188.109 8.68604 188.109 8.95947C188.109 9.229 188.041 9.42627 187.904 9.55127C187.768 9.67236 187.6 9.73291 187.4 9.73291C187.209 9.73291 187.047 9.67236 186.914 9.55127C186.781 9.42627 186.715 9.229 186.715 8.95947Z" fill="#9893A3"/>
</svg>
